<?xml version="1.0" encoding="UTF-8" standalone="no"?>
<svg
   xmlns:dc="http://purl.org/dc/elements/1.1/"
   xmlns:cc="http://creativecommons.org/ns#"
   xmlns:rdf="http://www.w3.org/1999/02/22-rdf-syntax-ns#"
   xmlns:svg="http://www.w3.org/2000/svg"
   xmlns="http://www.w3.org/2000/svg"
   id="svg8"
   version="1.1"
   viewBox="0 0 12 12"
   height="1em"
   width="1em">
  <metadata
     id="metadata14">
    <rdf:RDF>
      <cc:Work
         rdf:about="">
        <dc:format>image/svg+xml</dc:format>
        <dc:type
           rdf:resource="http://purl.org/dc/dcmitype/StillImage" />
      </cc:Work>
    </rdf:RDF>
  </metadata>
  <defs
     id="defs12" />
  <g
     id="g6"
     fillRule="evenodd"
     fill="none"
     strokeWidth="1"
     stroke="none">
    <g
       id="g4"
       fillRule="nonzero"
       fill="#000000"
       transform="translate(-318.000000, -363.000000)">
      <path
         id="path2"
         fill="currentColor"
         d="M318.234315,373.616648 C317.921896,373.929067 317.921892,374.435597 318.23432,374.748025 C318.54673,375.060434 319.053273,375.060443 319.365691,374.748025 L329.548029,364.565687 C329.860447,364.253269 329.860438,363.746726 329.548029,363.434316 C329.235601,363.121888 328.729071,363.121892 328.416652,363.434311 L318.234315,373.616648 Z M319.365688,363.234318 C319.05327,362.921899 318.546746,362.921889 318.234318,363.234318 C317.921908,363.546727 317.921899,364.05327 318.234318,364.365688 L328.416655,374.548026 C328.729074,374.860445 329.235617,374.860435 329.548026,374.548026 C329.860454,374.235598 329.860445,373.729074 329.548026,373.416655 L319.365688,363.234318 Z" />
    </g>
  </g>
</svg>
